<svg width="24" height="24" viewBox="0 0 24 24" fill="none" xmlns="http://www.w3.org/2000/svg">
<path d="M19.7784 2.57841C17.1484 1.36331 14.0684 2.11871 12.2284 4.31901C10.3884 2.15151 7.26839 1.4618 4.63839 2.677C1.45839 4.1877 0.108369 7.99731 1.61837 11.1829C3.05837 14.2043 11.6384 21.5607 11.9984 21.8892C12.0584 21.9548 12.1584 21.9877 12.2584 21.9877C12.2884 21.9877 12.3283 21.9877 12.3283 21.9877C12.4583 22.0205 12.5883 21.9877 12.6883 21.8892C13.0483 21.5607 21.5184 14.0729 22.9284 11.0515C24.3784 7.83311 22.9684 4.05631 19.7784 2.57841ZM22.1784 10.6903C21.0284 13.1862 14.3883 19.2619 12.5883 20.8711C12.5183 20.9368 12.4183 20.9696 12.3283 20.9696C12.2283 20.9696 12.1284 20.9368 12.0584 20.8711C10.2184 19.2947 3.51834 13.3176 2.33834 10.8216C1.02834 8.06291 2.20837 4.71311 4.99837 3.43231C5.75837 3.07111 6.57837 2.90691 7.36837 2.90691C9.10837 2.90691 10.8084 3.72791 11.8984 5.23861C11.9584 5.33711 12.0984 5.40281 12.2284 5.40281C12.3584 5.40281 12.4884 5.33711 12.5584 5.23861C14.0984 3.03821 16.9884 2.21721 19.4184 3.33381C22.2084 4.61461 23.4584 7.89871 22.1784 10.6903Z" fill="#40474E"/>
</svg>
